<svg xmlns="http://www.w3.org/2000/svg" width="1200" height="458" viewBox="0 0 1200 458" role="img" aria-label="Top languages for BrandNewJimZhang">
  <defs>
    <linearGradient id="bg" x1="0" y1="0" x2="1" y2="1">
      <stop offset="0" stop-color="#fff0f5"/>
      <stop offset="1" stop-color="#fff7df"/>
    </linearGradient>
    <style>
      .head { font: 900 30px "Arial","Helvetica",sans-serif; fill:#ffffff; letter-spacing:1px; }
      .lang { font: 800 22px "Arial","Helvetica",sans-serif; fill:#5c2b48; }
      .pct  { font: 700 21px "Arial","Helvetica",sans-serif; fill:#b86b91; }
    </style>
  </defs>
  <rect width="1200" height="458" fill="url(#bg)"/>
  <rect x="20" y="20" width="1160" height="418" fill="#fffafd"/>
  <rect x="20" y="20" width="1160" height="418" fill="none" stroke="#d94896" stroke-width="6"/>
  <rect x="20" y="20" width="1160" height="60" fill="#ff5eb5"/>
  <text x="40" y="62" class="head">&#9733; TOP LANGUAGES &#183; ALL REPOS + AUTOSKILL</text>
  <text x="40" y="138" class="lang">Python</text>
  <rect x="320" y="120" width="744" height="26" fill="#ffe9f3"/>
  <rect x="320" y="120" width="744" height="26" fill="none" stroke="#ff85c8" stroke-width="2"/>
  <rect x="320" y="120" width="477" height="26" fill="#3572A5"/>
  <text x="1160" y="138" class="pct" text-anchor="end">64.1%</text>
  <text x="40" y="192" class="lang">TypeScript</text>
  <rect x="320" y="174" width="744" height="26" fill="#ffe9f3"/>
  <rect x="320" y="174" width="744" height="26" fill="none" stroke="#ff85c8" stroke-width="2"/>
  <rect x="320" y="174" width="172" height="26" fill="#3178c6"/>
  <text x="1160" y="192" class="pct" text-anchor="end">23.1%</text>
  <text x="40" y="246" class="lang">JavaScript</text>
  <rect x="320" y="228" width="744" height="26" fill="#ffe9f3"/>
  <rect x="320" y="228" width="744" height="26" fill="none" stroke="#ff85c8" stroke-width="2"/>
  <rect x="320" y="228" width="45" height="26" fill="#f1e05a"/>
  <text x="1160" y="246" class="pct" text-anchor="end">6.1%</text>
  <text x="40" y="300" class="lang">CSS</text>
  <rect x="320" y="282" width="744" height="26" fill="#ffe9f3"/>
  <rect x="320" y="282" width="744" height="26" fill="none" stroke="#ff85c8" stroke-width="2"/>
  <rect x="320" y="282" width="31" height="26" fill="#663399"/>
  <text x="1160" y="300" class="pct" text-anchor="end">4.2%</text>
  <text x="40" y="354" class="lang">TeX</text>
  <rect x="320" y="336" width="744" height="26" fill="#ffe9f3"/>
  <rect x="320" y="336" width="744" height="26" fill="none" stroke="#ff85c8" stroke-width="2"/>
  <rect x="320" y="336" width="14" height="26" fill="#3D6117"/>
  <text x="1160" y="354" class="pct" text-anchor="end">1.9%</text>
  <text x="40" y="408" class="lang">MDX</text>
  <rect x="320" y="390" width="744" height="26" fill="#ffe9f3"/>
  <rect x="320" y="390" width="744" height="26" fill="none" stroke="#ff85c8" stroke-width="2"/>
  <rect x="320" y="390" width="10" height="26" fill="#fcb32c"/>
  <text x="1160" y="408" class="pct" text-anchor="end">0.7%</text>
</svg>
